<?xml version="1.0" encoding="UTF-8"?>
<svg version="1.1" xmlns="http://www.w3.org/2000/svg" width="512" height="512">
<path d="M0 0 C0.72703125 0.23412598 1.4540625 0.46825195 2.203125 0.70947266 C27.93969903 9.18911651 52.05518728 22.90274666 73 40 C74.00675781 40.80308594 75.01351563 41.60617188 76.05078125 42.43359375 C89.6070517 53.42602552 102.54746072 66.00106346 113 80 C113.70769531 80.92570801 113.70769531 80.92570801 114.4296875 81.87011719 C123.40633919 93.64359879 131.04972553 105.93368502 138 119 C138.40702148 119.75796875 138.81404297 120.5159375 139.23339844 121.296875 C153.07308965 147.46816031 161.26388638 177.60268621 164 207 C164.11085938 208.12921875 164.22171875 209.2584375 164.3359375 210.421875 C167.22067483 244.25906421 162.46343555 277.80023531 152 310 C151.64083496 311.10649902 151.64083496 311.10649902 151.27441406 312.23535156 C137.08522658 354.88528954 108.05461026 395.970918 72 423 C71.38141113 423.47324707 70.76282227 423.94649414 70.12548828 424.43408203 C58.35353313 433.40890674 46.06422628 441.05083656 33 448 C32.24203125 448.40702148 31.4840625 448.81404297 30.703125 449.23339844 C8.82849122 460.80096852 -15.67534868 467.94117188 -40 472 C-41.10649902 472.1846582 -41.10649902 472.1846582 -42.23535156 472.37304688 C-103.67588548 482.24794011 -169.51035949 466.67433426 -220.03027344 430.43652344 C-230.31031659 422.93927828 -239.84110515 414.82894367 -249 406 C-249.55606934 405.46584473 -250.11213867 404.93168945 -250.68505859 404.38134766 C-257.99559113 397.32254078 -264.83493084 390.10120658 -271 382 C-271.71857178 381.06341553 -271.71857178 381.06341553 -272.45166016 380.10791016 C-281.41917633 368.34205975 -289.05527995 356.05587284 -296 343 C-296.40702148 342.24203125 -296.81404297 341.4840625 -297.23339844 340.703125 C-325.85034488 286.58759174 -330.50343064 219.65516899 -313.0625 161.375 C-312.08015444 158.23645242 -311.05160431 155.11594175 -310 152 C-309.7829541 151.33983887 -309.5659082 150.67967773 -309.34228516 149.99951172 C-300.752833 124.17833771 -287.17451455 100.04559561 -270 79 C-269.20851563 78.00484375 -268.41703125 77.0096875 -267.6015625 75.984375 C-255.52321969 61.04960343 -241.64407723 47.17247122 -226 36 C-225.38092773 35.55253418 -224.76185547 35.10506836 -224.12402344 34.64404297 C-188.31550062 8.89823663 -147.1000048 -7.8954541 -103 -12 C-101.30617187 -12.16628906 -101.30617187 -12.16628906 -99.578125 -12.3359375 C-65.73181586 -15.22145233 -32.21132325 -10.44836876 0 0 Z M-31 67 C-40.29560091 76.92002087 -40.29560091 76.92002087 -49.328125 87.078125 C-51.35758073 89.41105074 -53.427647 91.70511245 -55.5 94 C-58.18983431 96.98062721 -60.86310364 99.97245233 -63.5 103 C-66.89253093 106.89512811 -70.35194201 110.72782763 -73.8125 114.5625 C-75.72554149 116.69417481 -77.61887612 118.8401911 -79.5 121 C-82.89253093 124.89512811 -86.35194201 128.72782763 -89.8125 132.5625 C-91.72554149 134.69417481 -93.61887612 136.8401911 -95.5 139 C-98.89253093 142.89512811 -102.35194201 146.72782763 -105.8125 150.5625 C-107.72554149 152.69417481 -109.61887612 154.8401911 -111.5 157 C-114.89253093 160.89512811 -118.35194201 164.72782763 -121.8125 168.5625 C-123.72554149 170.69417481 -125.61887612 172.8401911 -127.5 175 C-130.89253093 178.89512811 -134.35194201 182.72782763 -137.8125 186.5625 C-139.72554149 188.69417481 -141.61887612 190.8401911 -143.5 193 C-146.89253093 196.89512811 -150.35194201 200.72782763 -153.8125 204.5625 C-155.72554149 206.69417481 -157.61887612 208.8401911 -159.5 211 C-162.13689636 214.02754767 -164.81016569 217.01937279 -167.5 220 C-170.7772706 223.63216961 -174.02834472 227.28287988 -177.22265625 230.98828125 C-178.53318824 232.47163065 -179.88013646 233.92299528 -181.24609375 235.35546875 C-181.98988281 236.14566406 -182.73367187 236.93585938 -183.5 237.75 C-184.1909375 238.46671875 -184.881875 239.1834375 -185.59375 239.921875 C-187.22879204 241.86530119 -187.22879204 241.86530119 -186.81390381 244.03276062 C-186.07521471 246.46607308 -186.07521471 246.46607308 -182.38378906 247.55395508 C-175.64749447 249.52098691 -168.74183203 250.79858161 -161.859375 252.13671875 C-160.40440522 252.42351521 -158.94951145 252.71069756 -157.49468994 252.99824524 C-154.46300604 253.59610635 -151.43055441 254.18985032 -148.39746094 254.78051758 C-144.51694825 255.53648018 -140.63839357 256.3019936 -136.76034164 257.07046795 C-133.76357404 257.66335961 -130.76591211 258.2516205 -127.76795197 258.83844948 C-126.33720097 259.11900141 -124.90671054 259.4008857 -123.47649384 259.68414879 C-121.47970638 260.07881933 -119.48157644 260.46667915 -117.48339844 260.85424805 C-116.34916443 261.07614304 -115.21493042 261.29803802 -114.04632568 261.5266571 C-111.29040414 261.95487655 -108.77894387 262.03559574 -106 262 C-106.18793247 262.72764305 -106.37586494 263.4552861 -106.56949234 264.20497894 C-108.40643951 271.41842795 -110.01625289 278.64737523 -111.46777344 285.94726562 C-111.69414993 287.07400696 -111.92052643 288.20074829 -112.15376282 289.3616333 C-112.89222231 293.04252933 -113.62619334 296.72429931 -114.359375 300.40625 C-114.8731395 302.98026712 -115.38691325 305.55428239 -115.9006958 308.1282959 C-116.83596817 312.81688966 -117.76912328 317.50589979 -118.70055652 322.19525766 C-120.06920098 329.08574589 -121.44546517 335.97465485 -122.82823348 342.86232233 C-124.03012496 348.8516187 -125.22254725 354.84276426 -126.41150665 360.8346405 C-126.91742435 363.37738166 -127.42621797 365.91955235 -127.93791962 368.46113586 C-128.64999771 372.00183159 -129.35124588 375.5445066 -130.04980469 379.08789062 C-130.26375381 380.13934265 -130.47770294 381.19079468 -130.69813538 382.27410889 C-130.88595078 383.2383075 -131.07376617 384.2025061 -131.26727295 385.19592285 C-131.51722582 386.45014919 -131.51722582 386.45014919 -131.77222824 387.72971344 C-132.01010602 390.10073054 -131.72388945 391.745625 -131 394 C-129.68 394.33 -128.36 394.66 -127 395 C-117.70439909 385.07997913 -117.70439909 385.07997913 -108.671875 374.921875 C-106.64241927 372.58894926 -104.572353 370.29488755 -102.5 368 C-99.81016569 365.01937279 -97.13689636 362.02754767 -94.5 359 C-91.10625985 355.10348353 -87.64569997 351.26935055 -84.18359375 347.43359375 C-82.29151315 345.32488854 -80.42094242 343.20080199 -78.5625 341.0625 C-74.91062947 336.86835635 -71.15733816 332.76905708 -67.41015625 328.66015625 C-64.83006864 325.81244205 -62.29798144 322.92755982 -59.77734375 320.02734375 C-57.70640513 317.66510827 -55.60487152 315.33204147 -53.5 313 C-50.81016569 310.01937279 -48.13689636 307.02754767 -45.5 304 C-42.10746907 300.10487189 -38.64805799 296.27217237 -35.1875 292.4375 C-33.27445851 290.30582519 -31.38112388 288.1598089 -29.5 286 C-26.10746907 282.10487189 -22.64805799 278.27217237 -19.1875 274.4375 C-17.27445851 272.30582519 -15.38112388 270.1598089 -13.5 268 C-10.10746907 264.10487189 -6.64805799 260.27217237 -3.1875 256.4375 C-1.27445851 254.30582519 0.61887612 252.1598089 2.5 250 C5.13689636 246.97245233 7.81016569 243.98062721 10.5 241 C13.79777732 237.34449769 17.07385035 233.673751 20.2890625 229.9453125 C21.50635955 228.56126243 22.75483205 227.20436621 24.0234375 225.8671875 C24.67570313 225.16851562 25.32796875 224.46984375 26 223.75 C26.598125 223.12609375 27.19625 222.5021875 27.8125 221.859375 C29.21821711 220.0809231 29.21821711 220.0809231 28.80023193 217.98091125 C28.08143641 215.53234387 28.08143641 215.53234387 24.38378906 214.44604492 C17.64749447 212.47901309 10.74183203 211.20141839 3.859375 209.86328125 C2.40440522 209.57648479 0.94951145 209.28930244 -0.50531006 209.00175476 C-3.53699396 208.40389365 -6.56944559 207.81014968 -9.60253906 207.21948242 C-13.48305175 206.46351982 -17.36160643 205.6980064 -21.23965836 204.92953205 C-24.23642596 204.33664039 -27.23408789 203.7483795 -30.23204803 203.16155052 C-31.66279903 202.88099859 -33.09328946 202.5991143 -34.52350616 202.31585121 C-36.52029362 201.92118067 -38.51842356 201.53332085 -40.51660156 201.14575195 C-41.65083557 200.92385696 -42.78506958 200.70196198 -43.95367432 200.4733429 C-46.70959586 200.04512345 -49.22105613 199.96440426 -52 200 C-51.81206753 199.27235695 -51.62413506 198.5447139 -51.43050766 197.79502106 C-49.59356049 190.58157205 -47.98374711 183.35262477 -46.53222656 176.05273438 C-46.30585007 174.92599304 -46.07947357 173.79925171 -45.84623718 172.6383667 C-45.10777769 168.95747067 -44.37380666 165.27570069 -43.640625 161.59375 C-43.1268605 159.01973288 -42.61308675 156.44571761 -42.0993042 153.8717041 C-41.16403183 149.18311034 -40.23087672 144.49410021 -39.29944348 139.80474234 C-37.93079902 132.91425411 -36.55453483 126.02534515 -35.17176652 119.13767767 C-33.96987504 113.1483813 -32.77745275 107.15723574 -31.58849335 101.1653595 C-31.08257565 98.62261834 -30.57378203 96.08044765 -30.06208038 93.53886414 C-29.35000229 89.99816841 -28.64875412 86.4554934 -27.95019531 82.91210938 C-27.73624619 81.86065735 -27.52229706 80.80920532 -27.30186462 79.72589111 C-27.11404922 78.7616925 -26.92623383 77.7974939 -26.73272705 76.80407715 C-26.5660918 75.96792625 -26.39945656 75.13177536 -26.22777176 74.27028656 C-25.98989398 71.89926946 -26.27611055 70.254375 -27 68 C-28.98 67.505 -28.98 67.505 -31 67 Z " fill="#0FB981" transform="translate(335,25)"/>
</svg>
